<svg id="Layer_1" data-name="Layer 1" xmlns="http://www.w3.org/2000/svg" viewBox="0 0 380.38 274.26"><defs><style>.cls-1{fill:#00b5e5;}.cls-2{fill:#45bfe5;}.cls-3{fill:#97d5ed;}.cls-4{fill:#c5e6f4;}</style></defs><title>Droplet_Logo colour</title><path class="cls-1" d="M387.82,661.92a29.49,29.49,0,0,0-9.31-6.17,28,28,0,0,0-11-2.2,27.58,27.58,0,0,0-10.93,2.2,28.27,28.27,0,0,0-15.44,15.48,28.39,28.39,0,0,0,0,21.87,28.27,28.27,0,0,0,15.44,15.48,27.58,27.58,0,0,0,10.93,2.2,28,28,0,0,0,11-2.2,29.49,29.49,0,0,0,9.31-6.17A29.81,29.81,0,0,0,394,693.1a28.39,28.39,0,0,0,0-21.87A29.81,29.81,0,0,0,387.82,661.92Zm-.62,28.56a21.09,21.09,0,0,1-4.61,6.75,22.17,22.17,0,0,1-6.8,4.55,21.29,21.29,0,0,1-16.53,0,21.3,21.3,0,0,1-11.3-11.3,20.67,20.67,0,0,1-1.67-8.26A21.1,21.1,0,0,1,348,673.9a21.17,21.17,0,0,1,11.3-11.35,21.17,21.17,0,0,1,16.53,0,22.17,22.17,0,0,1,6.8,4.55,20.88,20.88,0,0,1,4.61,6.8,21.1,21.1,0,0,1,1.67,8.32A20.67,20.67,0,0,1,387.2,690.48Z" transform="translate(-233.22 -460.17)"/><path class="cls-1" d="M485.74,635.15h0a3.66,3.66,0,0,0-7.32,0h0v73.23h0v0a3.66,3.66,0,1,0,7.32,0v0h0Z" transform="translate(-233.22 -460.17)"/><path class="cls-1" d="M457.5,661.92a28.4,28.4,0,0,0-9.21-6.17,28.53,28.53,0,0,0-22,0,28.47,28.47,0,0,0-9.2,6.17,28.16,28.16,0,0,0-6.23,9.31,28.69,28.69,0,0,0-2.14,11v48.55a3.66,3.66,0,1,0,7.32,0h0v-29.5a12.07,12.07,0,0,0,1.05,1.15,28.47,28.47,0,0,0,9.2,6.17,28.53,28.53,0,0,0,22,0,28.48,28.48,0,0,0,17.58-26.36,28.88,28.88,0,0,0-2.14-11A28.16,28.16,0,0,0,457.5,661.92Zm-.63,28.56a21.3,21.3,0,0,1-11.3,11.3,21.29,21.29,0,0,1-16.53,0,21.33,21.33,0,0,1-11.29-11.3,20.51,20.51,0,0,1-1.68-8.26,20.93,20.93,0,0,1,1.68-8.32,21.2,21.2,0,0,1,4.55-6.8,21.43,21.43,0,0,1,6.74-4.55,21.17,21.17,0,0,1,16.53,0,21.59,21.59,0,0,1,6.75,4.55,21.2,21.2,0,0,1,4.55,6.8,20.93,20.93,0,0,1,1.68,8.32A20.51,20.51,0,0,1,456.87,690.48Z" transform="translate(-233.22 -460.17)"/><path class="cls-1" d="M286.69,629.9a3.66,3.66,0,0,0-3.67,3.66h0v29.5a11.68,11.68,0,0,0-1-1.15,28.4,28.4,0,0,0-9.21-6.17,28.53,28.53,0,0,0-22,0,28.53,28.53,0,0,0-17.58,26.36,28.7,28.7,0,0,0,2.15,11,28.58,28.58,0,0,0,52.83,0,28.69,28.69,0,0,0,2.14-11V633.58s0,0,0,0A3.66,3.66,0,0,0,286.69,629.9Zm-5.34,60.53a21.36,21.36,0,0,1-4.55,6.8,21.59,21.59,0,0,1-6.75,4.55,21.17,21.17,0,0,1-16.53,0,21.59,21.59,0,0,1-6.75-4.55,21.36,21.36,0,0,1-4.55-6.8,21.1,21.1,0,0,1-1.67-8.32,20.67,20.67,0,0,1,1.67-8.26,21.3,21.3,0,0,1,11.3-11.3,21.29,21.29,0,0,1,16.53,0,21.3,21.3,0,0,1,11.3,11.3,20.5,20.5,0,0,1,1.67,8.26A20.93,20.93,0,0,1,281.35,690.43Z" transform="translate(-233.22 -460.17)"/><path class="cls-1" d="M334.49,656.77a11.24,11.24,0,0,0-2-.6c-.91-.14-1.8-.27-2.67-.37a24.17,24.17,0,0,0-2.77-.16,23.3,23.3,0,0,0-8.37,1.52,23.89,23.89,0,0,0-7.22,4.34l-1.9-6.3a3,3,0,0,0-5.94.85h0v52.31a3.66,3.66,0,1,0,7.32,0h0V679.08a15.89,15.89,0,0,1,1.25-6.28,16.27,16.27,0,0,1,8.58-8.58A15.72,15.72,0,0,1,327,663a18.67,18.67,0,0,1,5.44.83,3.41,3.41,0,0,0,.71.06,3.67,3.67,0,0,0,1.3-7.09Z" transform="translate(-233.22 -460.17)"/><path class="cls-1" d="M555.37,671.34a26.91,26.91,0,0,0-6.22-9.31,29.11,29.11,0,0,0-9.26-6.28,27.66,27.66,0,0,0-10.94-2.2,28,28,0,0,0-11,2.2,27.64,27.64,0,0,0-9.21,6.28,26.86,26.86,0,0,0-6.22,9.2,28.7,28.7,0,0,0-2.15,11A28.58,28.58,0,0,0,518,708.58a28,28,0,0,0,11,2.2,27.66,27.66,0,0,0,10.94-2.2,30,30,0,0,0,9.26-6.17,44.31,44.31,0,0,0,3.2-3.84c.11-.16.73-1,1.28-1.86.13-.23,2.41-4-.69-5.63a4,4,0,0,0-2-.5,4.11,4.11,0,0,0-3.51,2h0a20.9,20.9,0,0,1-7.64,7.9,20.55,20.55,0,0,1-10.88,3,20.16,20.16,0,0,1-8.21-1.67,22.11,22.11,0,0,1-6.7-4.5,21.8,21.8,0,0,1-4.6-6.64,19.72,19.72,0,0,1-1.72-8.22h49.8A29.41,29.41,0,0,0,555.37,671.34Zm-46.5,3.76a21.8,21.8,0,0,1,7.74-10.25,21.22,21.22,0,0,1,5.75-2.93,20.67,20.67,0,0,1,6.59-1,20.15,20.15,0,0,1,12.29,4,21.83,21.83,0,0,1,7.7,10.25Z" transform="translate(-233.22 -460.17)"/><path class="cls-1" d="M596.45,656.06H582.73V635.14h0a3.66,3.66,0,1,0-7.32,0h0v20.92h-5.34a3.67,3.67,0,0,0,0,7.33h5.34v45h0a3.67,3.67,0,1,0,7.33,0h0v-45h13.72a3.67,3.67,0,0,0,0-7.33Z" transform="translate(-233.22 -460.17)"/><path class="cls-1" d="M477.81,466.31a6.47,6.47,0,0,0-1.58-4.5,5.41,5.41,0,0,0-4.1-1.64c-3.78,0-6,4.64-6.26,5.28-.12.29-11.91,29.77-56.6,41.74-14.93,4.6-25.36,8.24-34.08,16.57a62.68,62.68,0,0,0-19.67,44.93,61.15,61.15,0,1,0,122.29,0Zm-4.17,102.38a57,57,0,1,1-113.95,0,58.5,58.5,0,0,1,18.38-41.92c8.05-7.69,18.07-11.17,32.35-15.58,46.65-12.49,58.84-43,59.29-44.14s1.76-2.71,2.42-2.71,1,.24,1.07.32a2.33,2.33,0,0,1,.44,1.53Z" transform="translate(-233.22 -460.17)"/><path class="cls-1" d="M432.54,568.68a15.88,15.88,0,1,0-15.87,15.87A15.89,15.89,0,0,0,432.54,568.68Zm-27.58,0a11.71,11.71,0,1,1,11.71,11.7A11.72,11.72,0,0,1,405,568.68Z" transform="translate(-233.22 -460.17)"/><path class="cls-2" d="M392,596.57a9.86,9.86,0,1,0-9.85-9.85A9.85,9.85,0,0,0,392,596.57Z" transform="translate(-233.22 -460.17)"/><path class="cls-3" d="M414.32,547.91a9.85,9.85,0,1,0-9.85-9.85A9.85,9.85,0,0,0,414.32,547.91Z" transform="translate(-233.22 -460.17)"/><path class="cls-3" d="M455,577.93a9.85,9.85,0,1,0-9.85,9.85A9.85,9.85,0,0,0,455,577.93Z" transform="translate(-233.22 -460.17)"/><path class="cls-4" d="M433.3,533.41a9.85,9.85,0,1,0,9.85-9.85A9.85,9.85,0,0,0,433.3,533.41Z" transform="translate(-233.22 -460.17)"/><path class="cls-2" d="M405.07,601a3.94,3.94,0,1,0-3.94-3.94A3.94,3.94,0,0,0,405.07,601Z" transform="translate(-233.22 -460.17)"/><circle class="cls-3" cx="161.3" cy="77.74" r="3.94"/><path class="cls-4" d="M460.49,509.31a3.94,3.94,0,1,0-3.94-3.94A3.94,3.94,0,0,0,460.49,509.31Z" transform="translate(-233.22 -460.17)"/><path class="cls-3" d="M394.12,569a5.92,5.92,0,1,0-5.92,5.91A5.91,5.91,0,0,0,394.12,569Z" transform="translate(-233.22 -460.17)"/><path class="cls-3" d="M434,597.89a5.91,5.91,0,1,0-5.92-5.91A5.92,5.92,0,0,0,434,597.89Z" transform="translate(-233.22 -460.17)"/><path class="cls-3" d="M447.29,557a5.91,5.91,0,1,0-5.91,5.91A5.91,5.91,0,0,0,447.29,557Z" transform="translate(-233.22 -460.17)"/><path class="cls-3" d="M402.51,522.1c0-.06,0-.11,0-.17a78.81,78.81,0,0,0-10.17,4.23,5.9,5.9,0,0,0,10.19-4.06Z" transform="translate(-233.22 -460.17)"/><path class="cls-3" d="M381.71,551.19a5.91,5.91,0,1,0,5.91-5.91A5.91,5.91,0,0,0,381.71,551.19Z" transform="translate(-233.22 -460.17)"/><path class="cls-2" d="M375,567.44a5.91,5.91,0,1,0-5.91-5.91A5.92,5.92,0,0,0,375,567.44Z" transform="translate(-233.22 -460.17)"/><path class="cls-3" d="M428.36,552.85a2,2,0,1,0-2-2A2,2,0,0,0,428.36,552.85Z" transform="translate(-233.22 -460.17)"/><path class="cls-4" d="M457.72,531.91a2,2,0,1,0,2-2A2,2,0,0,0,457.72,531.91Z" transform="translate(-233.22 -460.17)"/><path class="cls-4" d="M450.06,517.08a2,2,0,1,0-2-2A2,2,0,0,0,450.06,517.08Z" transform="translate(-233.22 -460.17)"/><path class="cls-3" d="M401.8,547.37a2,2,0,1,0-2,2A2,2,0,0,0,401.8,547.37Z" transform="translate(-233.22 -460.17)"/><path class="cls-4" d="M463,498a2,2,0,1,0-2-2A2,2,0,0,0,463,498Z" transform="translate(-233.22 -460.17)"/><path class="cls-4" d="M436.66,515.75a5.9,5.9,0,0,0,5-9,111.23,111.23,0,0,1-10.48,5.36A5.92,5.92,0,0,0,436.66,515.75Z" transform="translate(-233.22 -460.17)"/><path class="cls-4" d="M418.22,522.6a3.92,3.92,0,0,0,2.91-6.57c-2.18.75-4.45,1.45-6.8,2.12a4.4,4.4,0,0,0-.05.51A3.93,3.93,0,0,0,418.22,522.6Z" transform="translate(-233.22 -460.17)"/><path class="cls-3" d="M386.44,534.67a5.9,5.9,0,0,0-1.37-3.74c-.55.47-1.1,1-1.63,1.46a52.83,52.83,0,0,0-6.25,7.16,5.91,5.91,0,0,0,9.25-4.88Z" transform="translate(-233.22 -460.17)"/><path class="cls-2" d="M375.31,545.84a9.92,9.92,0,0,0-.42-2.85,50.63,50.63,0,0,0-5.33,11.8A9.85,9.85,0,0,0,375.31,545.84Z" transform="translate(-233.22 -460.17)"/><path class="cls-2" d="M378.1,581.88a9.85,9.85,0,0,0-9.85-9.85c-.23,0-.45,0-.67,0a48.73,48.73,0,0,0,5.08,18.62A9.85,9.85,0,0,0,378.1,581.88Z" transform="translate(-233.22 -460.17)"/><path class="cls-2" d="M377.83,593.62a5.89,5.89,0,0,0-3.05.87,49.67,49.67,0,0,0,7.29,9.16,5.91,5.91,0,0,0-4.24-10Z" transform="translate(-233.22 -460.17)"/><path class="cls-2" d="M392.63,603.18a13.73,13.73,0,0,0-8.16,2.68,49.09,49.09,0,0,0,21.94,11A13.78,13.78,0,0,0,392.63,603.18Z" transform="translate(-233.22 -460.17)"/><path class="cls-2" d="M421.47,595.53a13.77,13.77,0,0,0-11.09,22,50.09,50.09,0,0,0,6.29.41,49,49,0,0,0,17.52-3.23,13.81,13.81,0,0,0-12.72-19.14Z" transform="translate(-233.22 -460.17)"/><path class="cls-3" d="M437.72,606.34a13.73,13.73,0,0,0,1.43,6.1,49.56,49.56,0,0,0,19.4-17.94,13.77,13.77,0,0,0-20.83,11.84Z" transform="translate(-233.22 -460.17)"/><path class="cls-3" d="M455.5,586.68a5.89,5.89,0,0,0,4.31,5.66,49.18,49.18,0,0,0,4.37-10.85,5.86,5.86,0,0,0-8.68,5.19Z" transform="translate(-233.22 -460.17)"/><path class="cls-3" d="M458.13,568.67a9.86,9.86,0,0,0,6.84,9.38,48.94,48.94,0,0,0,.91-9.36v-9.64A9.85,9.85,0,0,0,458.13,568.67Z" transform="translate(-233.22 -460.17)"/><path class="cls-4" d="M462.61,548.6a3.93,3.93,0,0,0,3.27,3.88v-7.75A3.93,3.93,0,0,0,462.61,548.6Z" transform="translate(-233.22 -460.17)"/><path class="cls-4" d="M462.68,519.25a5.9,5.9,0,0,0,3.2,5.22V514A5.9,5.9,0,0,0,462.68,519.25Z" transform="translate(-233.22 -460.17)"/><path class="cls-1" d="M613.08,635.64a6.78,6.78,0,0,1,.53,2.62,6.89,6.89,0,0,1-.53,2.65,6.81,6.81,0,0,1-1.45,2.14,7.1,7.1,0,0,1-1,.83,6.42,6.42,0,0,1-1.16.62,6.65,6.65,0,0,1-5.25,0,6.68,6.68,0,0,1-1.15-.62,6.58,6.58,0,0,1-1-.83,6.84,6.84,0,0,1-1.46-2.14,7.07,7.07,0,0,1-.52-2.65,7,7,0,0,1,.52-2.62,6.84,6.84,0,0,1,1.46-2.14,5.93,5.93,0,0,1,2.15-1.45,6.54,6.54,0,0,1,5.25,0,6,6,0,0,1,2.16,1.45A6.81,6.81,0,0,1,613.08,635.64Zm-2.35,6.52a5.22,5.22,0,0,0,1.2-1.79,5.61,5.61,0,0,0,0-4.21,5.24,5.24,0,0,0-1.2-1.77,5.59,5.59,0,0,0-1.78-1.2,5.39,5.39,0,0,0-2.1-.42,5.32,5.32,0,0,0-2.1.42,5.48,5.48,0,0,0-1.78,1.2,5.42,5.42,0,0,0-1.21,1.77,5.74,5.74,0,0,0,0,4.21,5.4,5.4,0,0,0,1.21,1.79,5.5,5.5,0,0,0,3.88,1.61,5.5,5.5,0,0,0,3.88-1.61Zm-1.22-5.07a2.79,2.79,0,0,1-.14.9,1.87,1.87,0,0,1-.51.73,3.85,3.85,0,0,1,.31.43,2,2,0,0,1,.23.71c0,.22,0,.34,0,.36v1.27h-1.27v-1.25a.89.89,0,0,0-.94-.92h-1.38v2.17h-1.27v-6.7h2.61a2.21,2.21,0,0,1,.89.17,2.25,2.25,0,0,1,.74.48,2.37,2.37,0,0,1,.5.73A2.17,2.17,0,0,1,609.51,637.09Zm-3.66,1h1.38a1.09,1.09,0,0,0,.72-.25.88.88,0,0,0,.29-.71,1,1,0,0,0-.29-.76,1.15,1.15,0,0,0-.78-.28h-1.32Z" transform="translate(-233.22 -460.17)"/></svg>